<svg width="363" height="150" viewBox="0 0 363 150" fill="none" xmlns="http://www.w3.org/2000/svg">
<path d="M110.892 23.8107C108.209 25.9449 105.526 26.8749 99.6721 26.8749H93.9788V41.2722H86.9202V0.76907H98.9627C105.586 0.76907 108.269 1.69908 110.57 3.50545C113.581 5.80663 115.28 9.63398 115.28 13.6879C115.28 17.7418 113.521 21.7837 110.892 23.8107ZM105.473 8.48339C103.666 7.38645 101.586 7.22549 99.0163 7.22549H93.9788V20.4185H99.231C101.693 20.4185 103.613 20.2516 105.419 19.2143C107.118 18.2306 108.209 16.2573 108.209 13.7952C108.209 11.3867 107.166 9.46705 105.473 8.48339Z" fill="black"/>
<path d="M149.368 41.2722V23.8107H132.676V41.2722H125.343V0.76907H132.676V17.3543H149.368V0.76907H156.701V41.2722H149.368Z" fill="black"/>
<path d="M187.898 42.0412C175.635 42.0412 166.663 32.3 166.663 21.3485C166.663 9.30607 175.802 0 187.958 0C200 0 209.306 9.41337 209.306 21.0206C209.3 32.6219 200.054 42.0412 187.898 42.0412ZM188.011 6.51604C179.689 6.51604 173.995 13.3063 173.995 21.0206C173.995 28.8482 179.85 35.5252 188.011 35.5252C196.441 35.5252 201.967 28.3534 201.967 21.0743C201.967 13.7952 196.495 6.51604 188.011 6.51604Z" fill="black"/>
<path d="M232.944 7.22549V41.2722H225.611V7.22549H216.746V0.76907H241.761V7.22549H232.944Z" fill="black"/>
<path d="M269.62 42.0412C257.357 42.0412 248.378 32.3 248.378 21.3485C248.378 9.30607 257.518 0 269.673 0C281.716 0 291.022 9.41337 291.022 21.0206C291.022 32.6219 281.769 42.0412 269.62 42.0412ZM269.727 6.51604C261.405 6.51604 255.711 13.3063 255.711 21.0206C255.711 28.8482 261.572 35.5252 269.727 35.5252C278.157 35.5252 283.683 28.3534 283.683 21.0743C283.683 13.7952 278.21 6.51604 269.727 6.51604Z" fill="black"/>
<path d="M297.329 60.0811H306.075V147.371H298.182V148.313H362.597V115.494H362.15C360.594 149.738 320.949 147.371 320.949 147.371L321.17 147.407V103.333C328.914 103.333 339.442 102.218 340.998 122.243H341.272V83.7308H340.998C339.001 102.212 328.723 102.343 321.17 102.343V59.9022V60.2421C336.05 60.2421 352.349 57.3149 358.674 89.2333H359.032V59.1988H297.329V60.0811Z" fill="black"/>
<path d="M299.13 60.0751V59.1988H280.774V60.0751H288.893V125.289C288.595 141.66 276.714 149.165 267.551 148.832C250.739 148.223 248.808 132.312 248.808 129.033V60.0692H256.85V59.1928H225.569V60.0692H233.868L233.844 121.044C233.844 137.391 242.149 150 266.4 150C282.664 150 290.128 136.491 289.961 125.289V60.0692L299.13 60.0751Z" fill="black"/>
<path d="M219.286 111.649H226.106V110.767H198.062V111.649H205.264V131.4C205.264 140.539 201.323 148.885 188.84 149.13C179.862 149.255 174.931 144.17 172.302 137.129C169.459 129.593 168.409 121.688 168.409 103.774C168.409 92.2857 169.459 75.2355 173.399 67.5748C175.259 63.9919 178.657 57.6547 188.619 57.6905C201.115 57.7382 208.388 67.9444 213.759 89.3168H214.028V56.5697H213.742C211.112 62.8711 201.21 59.789 201.21 59.789C195.737 58.0601 193.329 56.826 188.506 56.826C173.065 56.826 151.818 72.517 151.818 104.889C151.818 131.328 167.694 150 189.376 150C198.355 150 203.833 143.46 211.494 143.46C213.902 143.46 218.32 144.968 219.089 148.796H219.274L219.286 111.649Z" fill="black"/>
<path d="M127.292 103.273C127.292 109.58 126.797 129.731 121.533 139.752C118.243 146.179 112.543 148.897 105.848 148.897C99.1594 148.897 93.4542 146.179 90.1693 139.752C84.9052 129.736 84.4104 109.58 84.4104 103.273C84.4104 96.9655 84.9052 77.4294 90.1693 67.0442C93.3528 60.6117 99.1594 57.8991 105.848 57.8991C112.537 57.8991 118.35 60.6176 121.533 67.0442C126.797 77.4294 127.292 96.9655 127.292 103.273ZM144.235 103.273C144.235 75.3309 124.168 57.0287 105.854 57.0287C87.5403 57.0287 67.4735 75.3309 67.4735 103.273C67.4735 131.215 88.202 149.762 105.854 149.762C123.507 149.767 144.235 131.215 144.235 103.273Z" fill="black"/>
<path d="M59.2107 59.2047V60.0573H67.4794L47.1265 128.169L22.5408 60.0573H29.6471V59.2047H0V60.0573H8.13759L41.4749 148.79H41.9518L68.4869 60.0573H75.5812V59.2047H59.2107Z" fill="black"/>
</svg>
