<svg width="609" height="185" viewBox="0 0 609 185" fill="none" xmlns="http://www.w3.org/2000/svg">
<rect width="609" height="185" rx="30" fill="black"/>
<g clip-path="url(#clip0_141_2812)">
<path d="M162.902 45.5244L158.481 139.525H130.134C127.255 125.083 124.718 108.654 122.515 90.2279C121.511 98.126 119.17 114.56 115.496 139.525H84.2509L72.9824 45.5244H97.4323L100.092 78.3229L102.662 110.031C103.59 93.62 105.912 72.1209 109.619 45.5244H135.754C136.101 48.2741 137.015 58.6077 138.499 76.5298L141.279 112.295C142.711 89.5393 145.052 67.2823 148.302 45.5244H162.892L162.902 45.5244Z" fill="white"/>
<path d="M184.915 45.5244L199.31 139.525H135.696L148.535 45.5244H184.915ZM177.116 139.525C175.84 128.877 169.021 82.1588 167.741 66.4827C165.176 84.4834 159.147 131.202 158.49 139.525H177.116Z" fill="white"/>
</g>
<path d="M234.003 86V55.1088H252.302V59.5924H238.487V68.3019H249.728V72.8069H238.487V86H234.003ZM265.815 86.6436C263.512 86.6436 261.489 86.143 259.744 85.1419C258.013 84.1265 256.662 82.7178 255.689 80.9158C254.731 79.0995 254.252 76.9972 254.252 74.6089C254.252 72.0775 254.724 69.8823 255.668 68.0231C256.626 66.1639 257.956 64.7266 259.658 63.7112C261.36 62.6958 263.341 62.1881 265.6 62.1881C267.96 62.1881 269.969 62.7387 271.628 63.8399C273.287 64.9268 274.524 66.4785 275.34 68.495C276.169 70.5115 276.498 72.907 276.326 75.6815H271.843V74.0511C271.814 71.3625 271.3 69.3746 270.298 68.0874C269.312 66.8003 267.803 66.1567 265.772 66.1567C263.527 66.1567 261.839 66.8646 260.709 68.2805C259.579 69.6963 259.015 71.7414 259.015 74.4158C259.015 76.9615 259.579 78.9351 260.709 80.3366C261.839 81.7239 263.469 82.4175 265.6 82.4175C267.002 82.4175 268.21 82.1029 269.226 81.4736C270.255 80.83 271.056 79.9147 271.628 78.7277L276.026 80.1221C275.125 82.1958 273.759 83.8047 271.929 84.9488C270.098 86.0787 268.06 86.6436 265.815 86.6436ZM257.556 75.6815V72.1848H274.095V75.6815H257.556ZM287.263 86.6436C285.547 86.6436 284.11 86.3289 282.952 85.6997C281.793 85.0561 280.914 84.2123 280.313 83.1683C279.727 82.11 279.433 80.9516 279.433 79.6931C279.433 78.5203 279.641 77.4906 280.055 76.6039C280.47 75.7172 281.085 74.9664 281.9 74.3515C282.716 73.7222 283.717 73.2145 284.904 72.8284C285.933 72.528 287.099 72.2634 288.4 72.0346C289.702 71.8058 291.068 71.5913 292.498 71.3911C293.942 71.1908 295.372 70.9906 296.788 70.7904L295.158 71.6914C295.186 69.8751 294.8 68.5308 293.999 67.6584C293.213 66.7717 291.854 66.3283 289.923 66.3283C288.708 66.3283 287.592 66.6144 286.577 67.1864C285.562 67.7442 284.854 68.6738 284.453 69.9752L280.27 68.6881C280.842 66.7002 281.929 65.1199 283.531 63.9471C285.147 62.7744 287.292 62.1881 289.966 62.1881C292.04 62.1881 293.842 62.5456 295.372 63.2607C296.917 63.9614 298.047 65.077 298.762 66.6072C299.134 67.3652 299.362 68.1661 299.448 69.0099C299.534 69.8537 299.577 70.7618 299.577 71.7343V86H295.608V80.7013L296.381 81.3878C295.422 83.1612 294.2 84.484 292.712 85.3564C291.239 86.2145 289.423 86.6436 287.263 86.6436ZM288.057 82.9752C289.33 82.9752 290.424 82.7536 291.339 82.3102C292.255 81.8526 292.991 81.2734 293.549 80.5726C294.107 79.8718 294.471 79.1424 294.643 78.3845C294.886 77.698 295.022 76.9257 295.051 76.0676C295.093 75.2095 295.115 74.5231 295.115 74.0082L296.574 74.5445C295.158 74.7591 293.871 74.9521 292.712 75.1237C291.554 75.2954 290.503 75.467 289.559 75.6386C288.629 75.7959 287.8 75.989 287.07 76.2178C286.455 76.4323 285.905 76.6897 285.419 76.9901C284.947 77.2904 284.568 77.6551 284.282 78.0841C284.01 78.5132 283.874 79.0352 283.874 79.6502C283.874 80.2508 284.024 80.8086 284.324 81.3234C284.625 81.824 285.082 82.2244 285.697 82.5247C286.312 82.8251 287.099 82.9752 288.057 82.9752ZM318.405 86C316.946 86.286 315.516 86.4076 314.115 86.3647C312.713 86.3218 311.462 86.0501 310.36 85.5495C309.259 85.049 308.43 84.2624 307.872 83.1898C307.371 82.2316 307.1 81.2591 307.057 80.2723C307.028 79.2712 307.014 78.1413 307.014 76.8828V56.396H311.519V76.6683C311.519 77.5979 311.526 78.4059 311.54 79.0924C311.569 79.7789 311.719 80.3581 311.991 80.83C312.506 81.7167 313.321 82.2244 314.436 82.3531C315.566 82.4675 316.889 82.4175 318.405 82.203V86ZM302.573 66.4356V62.8316H318.405V66.4356H302.573ZM332.021 86.6221C330.419 86.6221 329.075 86.3647 327.988 85.8498C326.901 85.335 326.014 84.6628 325.328 83.8333C324.655 82.9895 324.141 82.0742 323.783 81.0874C323.426 80.1006 323.182 79.1353 323.054 78.1914C322.925 77.2475 322.861 76.418 322.861 75.7029V62.8316H327.408V74.2227C327.408 75.1237 327.48 76.0533 327.623 77.0115C327.78 77.9554 328.066 78.835 328.481 79.6502C328.91 80.4653 329.504 81.1232 330.262 81.6238C331.034 82.1243 332.035 82.3746 333.265 82.3746C334.066 82.3746 334.824 82.2459 335.539 81.9884C336.254 81.7167 336.876 81.2877 337.405 80.7013C337.949 80.1149 338.371 79.3427 338.671 78.3845C338.986 77.4263 339.143 76.2607 339.143 74.8878L341.932 75.9389C341.932 78.0412 341.538 79.9004 340.752 81.5165C339.965 83.1183 338.835 84.3696 337.362 85.2706C335.889 86.1716 334.109 86.6221 332.021 86.6221ZM339.679 86V79.3069H339.143V62.8316H343.669V86H339.679ZM349.686 86V62.8316H353.676V68.4521L353.118 67.7227C353.404 66.9791 353.776 66.2997 354.234 65.6848C354.691 65.0555 355.221 64.5407 355.821 64.1402C356.408 63.7112 357.058 63.3822 357.773 63.1534C358.503 62.9103 359.246 62.7673 360.004 62.7244C360.762 62.6672 361.492 62.7029 362.193 62.8316V67.0363C361.435 66.836 360.591 66.7788 359.661 66.8646C358.746 66.9505 357.902 67.2436 357.13 67.7442C356.4 68.2161 355.821 68.7882 355.392 69.4604C354.977 70.1325 354.677 70.8834 354.491 71.7128C354.305 72.528 354.212 73.3933 354.212 74.3086V86H349.686ZM376.134 86.6436C373.832 86.6436 371.808 86.143 370.063 85.1419C368.333 84.1265 366.982 82.7178 366.009 80.9158C365.051 79.0995 364.572 76.9972 364.572 74.6089C364.572 72.0775 365.044 69.8823 365.988 68.0231C366.946 66.1639 368.276 64.7266 369.978 63.7112C371.68 62.6958 373.66 62.1881 375.92 62.1881C378.28 62.1881 380.289 62.7387 381.948 63.8399C383.607 64.9268 384.844 66.4785 385.659 68.495C386.489 70.5115 386.818 72.907 386.646 75.6815H382.163V74.0511C382.134 71.3625 381.619 69.3746 380.618 68.0874C379.631 66.8003 378.122 66.1567 376.092 66.1567C373.846 66.1567 372.159 66.8646 371.029 68.2805C369.899 69.6963 369.334 71.7414 369.334 74.4158C369.334 76.9615 369.899 78.9351 371.029 80.3366C372.159 81.7239 373.789 82.4175 375.92 82.4175C377.321 82.4175 378.53 82.1029 379.545 81.4736C380.575 80.83 381.376 79.9147 381.948 78.7277L386.346 80.1221C385.445 82.1958 384.079 83.8047 382.248 84.9488C380.418 86.0787 378.38 86.6436 376.134 86.6436ZM367.875 75.6815V72.1848H384.415V75.6815H367.875ZM400.662 86.6436C398.502 86.6436 396.636 86.1073 395.063 85.0347C393.504 83.962 392.296 82.5033 391.438 80.6584C390.594 78.7992 390.172 76.7112 390.172 74.3944C390.172 72.0632 390.601 69.9824 391.459 68.1518C392.317 66.3069 393.533 64.8553 395.106 63.797C396.693 62.7244 398.574 62.1881 400.748 62.1881C402.936 62.1881 404.774 62.7244 406.261 63.797C407.763 64.8553 408.893 66.3069 409.65 68.1518C410.423 69.9967 410.809 72.0775 410.809 74.3944C410.809 76.7112 410.423 78.7921 409.65 80.637C408.878 82.4818 407.741 83.9477 406.24 85.0347C404.738 86.1073 402.879 86.6436 400.662 86.6436ZM401.284 82.5891C402.757 82.5891 403.959 82.2387 404.888 81.5379C405.818 80.8372 406.497 79.8718 406.926 78.6419C407.355 77.412 407.57 75.9961 407.57 74.3944C407.57 72.7926 407.348 71.3768 406.905 70.1468C406.476 68.9169 405.803 67.9587 404.888 67.2722C403.987 66.5858 402.836 66.2425 401.434 66.2425C399.947 66.2425 398.724 66.6072 397.766 67.3366C396.808 68.066 396.093 69.0456 395.621 70.2755C395.163 71.5055 394.934 72.8784 394.934 74.3944C394.934 75.9246 395.163 77.3119 395.621 78.5561C396.093 79.786 396.793 80.7657 397.723 81.495C398.667 82.2244 399.854 82.5891 401.284 82.5891ZM407.57 86V69.3316H407.055V55.1088H411.56V86H407.57ZM244.064 133.644C241.748 133.644 239.738 133.122 238.036 132.078C236.334 131.034 235.019 129.596 234.089 127.766C233.174 125.921 232.716 123.797 232.716 121.394C232.716 118.977 233.188 116.854 234.132 115.023C235.076 113.178 236.399 111.748 238.101 110.733C239.803 109.703 241.79 109.188 244.064 109.188C246.381 109.188 248.391 109.71 250.092 110.754C251.794 111.798 253.11 113.235 254.04 115.066C254.969 116.897 255.434 119.006 255.434 121.394C255.434 123.811 254.962 125.942 254.018 127.787C253.089 129.618 251.773 131.055 250.071 132.099C248.369 133.129 246.367 133.644 244.064 133.644ZM244.064 129.417C246.281 129.417 247.933 128.674 249.02 127.186C250.121 125.685 250.672 123.754 250.672 121.394C250.672 118.977 250.114 117.047 248.998 115.602C247.897 114.144 246.253 113.414 244.064 113.414C242.563 113.414 241.326 113.757 240.353 114.444C239.381 115.116 238.658 116.053 238.186 117.254C237.715 118.441 237.479 119.821 237.479 121.394C237.479 123.826 238.036 125.771 239.152 127.229C240.267 128.688 241.905 129.417 244.064 129.417ZM276.409 133V121.609C276.409 120.708 276.33 119.785 276.173 118.842C276.03 117.883 275.744 116.997 275.315 116.181C274.9 115.366 274.307 114.708 273.534 114.208C272.776 113.707 271.782 113.457 270.552 113.457C269.752 113.457 268.994 113.593 268.279 113.865C267.563 114.122 266.934 114.544 266.391 115.13C265.862 115.717 265.44 116.489 265.125 117.447C264.825 118.405 264.675 119.571 264.675 120.944L261.886 119.893C261.886 117.79 262.279 115.938 263.066 114.337C263.852 112.721 264.982 111.462 266.455 110.561C267.928 109.66 269.709 109.21 271.797 109.21C273.398 109.21 274.743 109.467 275.83 109.982C276.917 110.497 277.796 111.176 278.468 112.02C279.155 112.849 279.677 113.757 280.034 114.744C280.392 115.731 280.635 116.696 280.764 117.64C280.892 118.584 280.957 119.414 280.957 120.129V133H276.409ZM260.127 133V109.832H264.138V116.525H264.675V133H260.127ZM301.677 133L292.71 102.109H297.408L303.908 125.47L310.408 102.13L315.127 102.109L321.627 125.47L328.127 102.109H332.847L323.858 133H319.396L312.767 109.896L306.139 133H301.677ZM344.166 133.644C341.863 133.644 339.839 133.143 338.095 132.142C336.364 131.127 335.013 129.718 334.04 127.916C333.082 126.1 332.603 123.997 332.603 121.609C332.603 119.078 333.075 116.882 334.019 115.023C334.977 113.164 336.307 111.727 338.009 110.711C339.711 109.696 341.692 109.188 343.951 109.188C346.311 109.188 348.32 109.739 349.979 110.84C351.638 111.927 352.875 113.479 353.69 115.495C354.52 117.512 354.849 119.907 354.677 122.681H350.194V121.051C350.165 118.362 349.65 116.375 348.649 115.087C347.662 113.8 346.154 113.157 344.123 113.157C341.877 113.157 340.19 113.865 339.06 115.28C337.93 116.696 337.365 118.741 337.365 121.416C337.365 123.961 337.93 125.935 339.06 127.337C340.19 128.724 341.82 129.417 343.951 129.417C345.353 129.417 346.561 129.103 347.577 128.474C348.606 127.83 349.407 126.915 349.979 125.728L354.377 127.122C353.476 129.196 352.11 130.805 350.28 131.949C348.449 133.079 346.411 133.644 344.166 133.644ZM335.907 122.681V119.185H352.446V122.681H335.907ZM359.49 133V102.109H369.165C369.451 102.109 369.98 102.116 370.753 102.13C371.539 102.145 372.29 102.202 373.005 102.302C375.422 102.602 377.453 103.467 379.098 104.898C380.757 106.328 382.008 108.144 382.852 110.346C383.695 112.535 384.117 114.937 384.117 117.554C384.117 120.186 383.695 122.603 382.852 124.805C382.008 126.993 380.757 128.803 379.098 130.233C377.453 131.649 375.422 132.507 373.005 132.807C372.29 132.907 371.539 132.964 370.753 132.979C369.98 132.993 369.451 133 369.165 133H359.49ZM364.081 128.731H369.165C369.651 128.731 370.231 128.717 370.903 128.688C371.575 128.66 372.168 128.602 372.683 128.516C374.256 128.216 375.529 127.537 376.502 126.479C377.489 125.406 378.211 124.09 378.668 122.531C379.126 120.972 379.355 119.314 379.355 117.554C379.355 115.738 379.119 114.058 378.647 112.513C378.175 110.954 377.446 109.653 376.459 108.609C375.486 107.551 374.228 106.878 372.683 106.592C372.168 106.492 371.568 106.435 370.881 106.421C370.209 106.392 369.637 106.378 369.165 106.378H364.081V128.731ZM389.542 106.035V101.68H394.025V106.035H389.542ZM389.542 133V109.832H394.025V133H389.542ZM400.467 133V109.832H404.457V115.452L403.9 114.723C404.186 113.979 404.557 113.3 405.015 112.685C405.473 112.056 406.002 111.541 406.603 111.14C407.189 110.711 407.84 110.382 408.555 110.153C409.284 109.91 410.028 109.767 410.786 109.724C411.544 109.667 412.273 109.703 412.974 109.832V114.036C412.216 113.836 411.372 113.779 410.443 113.865C409.527 113.95 408.683 114.244 407.911 114.744C407.182 115.216 406.603 115.788 406.174 116.46C405.759 117.133 405.458 117.883 405.273 118.713C405.087 119.528 404.994 120.393 404.994 121.309V133H400.467ZM426.916 133.644C424.613 133.644 422.59 133.143 420.845 132.142C419.114 131.127 417.763 129.718 416.79 127.916C415.832 126.1 415.353 123.997 415.353 121.609C415.353 119.078 415.825 116.882 416.769 115.023C417.727 113.164 419.057 111.727 420.759 110.711C422.461 109.696 424.442 109.188 426.701 109.188C429.061 109.188 431.07 109.739 432.729 110.84C434.388 111.927 435.625 113.479 436.441 115.495C437.27 117.512 437.599 119.907 437.427 122.681H432.944V121.051C432.915 118.362 432.4 116.375 431.399 115.087C430.413 113.8 428.904 113.157 426.873 113.157C424.628 113.157 422.94 113.865 421.81 115.28C420.68 116.696 420.115 118.741 420.115 121.416C420.115 123.961 420.68 125.935 421.81 127.337C422.94 128.724 424.57 129.417 426.701 129.417C428.103 129.417 429.311 129.103 430.327 128.474C431.356 127.83 432.157 126.915 432.729 125.728L437.127 127.122C436.226 129.196 434.86 130.805 433.03 131.949C431.199 133.079 429.161 133.644 426.916 133.644ZM418.657 122.681V119.185H435.196V122.681H418.657ZM452.151 133.644C449.777 133.644 447.761 133.114 446.102 132.056C444.443 130.998 443.17 129.546 442.283 127.701C441.411 125.856 440.968 123.761 440.953 121.416C440.968 119.027 441.425 116.918 442.326 115.087C443.227 113.243 444.514 111.798 446.188 110.754C447.861 109.71 449.87 109.188 452.216 109.188C454.747 109.188 456.907 109.817 458.694 111.076C460.496 112.334 461.683 114.058 462.255 116.246L457.793 117.533C457.35 116.232 456.621 115.223 455.605 114.508C454.604 113.779 453.453 113.414 452.151 113.414C450.678 113.414 449.47 113.765 448.526 114.465C447.582 115.152 446.881 116.096 446.424 117.297C445.966 118.498 445.73 119.871 445.716 121.416C445.73 123.804 446.273 125.735 447.346 127.208C448.433 128.681 450.035 129.417 452.151 129.417C453.596 129.417 454.761 129.089 455.648 128.431C456.549 127.759 457.235 126.8 457.707 125.556L462.255 126.629C461.497 128.888 460.246 130.626 458.501 131.842C456.756 133.043 454.64 133.644 452.151 133.644ZM479.883 133C478.424 133.286 476.994 133.408 475.593 133.365C474.191 133.322 472.94 133.05 471.838 132.55C470.737 132.049 469.908 131.262 469.35 130.19C468.849 129.232 468.578 128.259 468.535 127.272C468.506 126.271 468.492 125.141 468.492 123.883V103.396H472.997V123.668C472.997 124.598 473.004 125.406 473.018 126.092C473.047 126.779 473.197 127.358 473.469 127.83C473.984 128.717 474.799 129.224 475.914 129.353C477.044 129.468 478.367 129.417 479.883 129.203V133ZM464.051 113.436V109.832H479.883V113.436H464.051ZM493.781 133.644C491.464 133.644 489.455 133.122 487.753 132.078C486.051 131.034 484.736 129.596 483.806 127.766C482.891 125.921 482.433 123.797 482.433 121.394C482.433 118.977 482.905 116.854 483.849 115.023C484.793 113.178 486.116 111.748 487.818 110.733C489.519 109.703 491.507 109.188 493.781 109.188C496.098 109.188 498.107 109.71 499.809 110.754C501.511 111.798 502.827 113.235 503.757 115.066C504.686 116.897 505.151 119.006 505.151 121.394C505.151 123.811 504.679 125.942 503.735 127.787C502.806 129.618 501.49 131.055 499.788 132.099C498.086 133.129 496.084 133.644 493.781 133.644ZM493.781 129.417C495.998 129.417 497.65 128.674 498.737 127.186C499.838 125.685 500.389 123.754 500.389 121.394C500.389 118.977 499.831 117.047 498.715 115.602C497.614 114.144 495.969 113.414 493.781 113.414C492.28 113.414 491.043 113.757 490.07 114.444C489.098 115.116 488.375 116.053 487.903 117.254C487.431 118.441 487.195 119.821 487.195 121.394C487.195 123.826 487.753 125.771 488.869 127.229C489.984 128.688 491.622 129.417 493.781 129.417ZM509.865 133V109.832H513.855V115.452L513.297 114.723C513.583 113.979 513.955 113.3 514.413 112.685C514.871 112.056 515.4 111.541 516 111.14C516.587 110.711 517.237 110.382 517.953 110.153C518.682 109.91 519.426 109.767 520.184 109.724C520.942 109.667 521.671 109.703 522.372 109.832V114.036C521.614 113.836 520.77 113.779 519.84 113.865C518.925 113.95 518.081 114.244 517.309 114.744C516.58 115.216 516 115.788 515.571 116.46C515.157 117.133 514.856 117.883 514.67 118.713C514.484 119.528 514.391 120.393 514.391 121.309V133H509.865ZM529.002 143.297L533.486 131.091L533.55 134.695L523.446 109.832H528.123L535.674 129.031H534.301L541.509 109.832H546.057L533.271 143.297H529.002Z" fill="white"/>
<defs>
<clipPath id="clip0_141_2812">
<rect width="126.313" height="94.0007" fill="white" transform="translate(72.9805 45.5335)"/>
</clipPath>
</defs>
</svg>
