<svg xmlns="http://www.w3.org/2000/svg" width="145" height="17.335" viewBox="0 0 145 17.335">
  <path id="Unione_48" data-name="Unione 48" d="M92.278,16.329A3.472,3.472,0,0,1,90.7,13.246a4.086,4.086,0,0,1,.522-2.155A3.319,3.319,0,0,1,92.63,9.784a6.073,6.073,0,0,1,1.986-.536l5.761-.523h.013a1.96,1.96,0,0,0,.941-.235.558.558,0,0,0,.235-.536c0-.183-.065-.444-.549-.64a6.266,6.266,0,0,0-2.208-.274,6.191,6.191,0,0,0-2.377.353,1.217,1.217,0,0,0-.8.967.271.271,0,0,1-.274.235H91.716a.288.288,0,0,1-.2-.078.266.266,0,0,1-.078-.2,3.6,3.6,0,0,1,1.032-2.547,5.2,5.2,0,0,1,2.547-1.306,16.864,16.864,0,0,1,3.71-.353,19.434,19.434,0,0,1,3.723.3,4.58,4.58,0,0,1,2.364,1.149,3.258,3.258,0,0,1,.875,2.391v6.767a7.586,7.586,0,0,0,.065,1.058,1.411,1.411,0,0,0,.2.562.248.248,0,0,1,.065.17v.131a.276.276,0,0,1-.274.274H102.4a.265.265,0,0,1-.2-.078,1.279,1.279,0,0,1-.314-.64,2.52,2.52,0,0,1-.091-.588,5.509,5.509,0,0,1-1.946,1.176,10.443,10.443,0,0,1-3.618.549A7.084,7.084,0,0,1,92.278,16.329Zm4.141-4.415a2.5,2.5,0,0,0-1.215.405,1.042,1.042,0,0,0-.366.9.99.99,0,0,0,.5.954,3.671,3.671,0,0,0,1.777.326,6.933,6.933,0,0,0,3.331-.758,2.422,2.422,0,0,0,1.293-2.312v-.2a.072.072,0,0,0-.065.039,4.076,4.076,0,0,1-.575.118H101Zm35.989,4.651a5.844,5.844,0,0,1-2.756-2.273,6.618,6.618,0,0,1-.927-3.566,6.633,6.633,0,0,1,.927-3.579,5.9,5.9,0,0,1,2.756-2.26,13.257,13.257,0,0,1,8.909,0,5.819,5.819,0,0,1,2.756,2.26A6.87,6.87,0,0,1,145,10.725a6.617,6.617,0,0,1-.927,3.566,5.844,5.844,0,0,1-2.756,2.273,13.259,13.259,0,0,1-8.909,0Zm1.437-8.426a3.321,3.321,0,0,0-.967,2.586,3.218,3.218,0,0,0,.967,2.56,5.685,5.685,0,0,0,6.061,0,3.281,3.281,0,0,0,.967-2.56,3.3,3.3,0,0,0-.967-2.586,5.685,5.685,0,0,0-6.061,0Zm-18.027,8.413a5.675,5.675,0,0,1-2.743-2.273,6.645,6.645,0,0,1-.914-3.566,6.746,6.746,0,0,1,.914-3.579,5.8,5.8,0,0,1,2.743-2.26,11.28,11.28,0,0,1,4.389-.771,12.694,12.694,0,0,1,4.337.627,5.624,5.624,0,0,1,2.587,1.79A5.675,5.675,0,0,1,128.2,9.183a.281.281,0,0,1-.065.222.308.308,0,0,1-.209.091h-3.8a.28.28,0,0,1-.274-.222,2.3,2.3,0,0,0-.967-1.463,4.878,4.878,0,0,0-2.678-.549,4.31,4.31,0,0,0-2.952.888,3.311,3.311,0,0,0-.967,2.573,3.281,3.281,0,0,0,.967,2.56,4.391,4.391,0,0,0,2.965.875,4.813,4.813,0,0,0,2.691-.575,2.217,2.217,0,0,0,.941-1.5.292.292,0,0,1,.274-.235h3.854a.255.255,0,0,1,.2.091.282.282,0,0,1,.065.222,5.576,5.576,0,0,1-1.071,2.717,5.8,5.8,0,0,1-2.613,1.8,12.8,12.8,0,0,1-4.35.64A11.189,11.189,0,0,1,115.817,16.551Zm-47.576,0a5.843,5.843,0,0,1-2.756-2.273,6.618,6.618,0,0,1-.927-3.566,6.633,6.633,0,0,1,.927-3.579,5.9,5.9,0,0,1,2.756-2.26,13.259,13.259,0,0,1,8.909,0,5.9,5.9,0,0,1,2.756,2.26,6.633,6.633,0,0,1,.927,3.579,6.618,6.618,0,0,1-.927,3.566,5.843,5.843,0,0,1-2.756,2.273,13.259,13.259,0,0,1-8.909,0Zm1.437-8.413a3.258,3.258,0,0,0-.967,2.586,3.218,3.218,0,0,0,.967,2.56,5.685,5.685,0,0,0,6.061,0,3.2,3.2,0,0,0,.967-2.56,3.3,3.3,0,0,0-.967-2.586,5.685,5.685,0,0,0-6.061,0ZM40.025,16.551a5.843,5.843,0,0,1-2.756-2.273,6.618,6.618,0,0,1-.927-3.566,6.633,6.633,0,0,1,.927-3.579,5.9,5.9,0,0,1,2.756-2.26A11.441,11.441,0,0,1,44.48,4.1a11.4,11.4,0,0,1,4.455.771,5.9,5.9,0,0,1,2.756,2.26,6.633,6.633,0,0,1,.927,3.579,6.618,6.618,0,0,1-.927,3.566,5.843,5.843,0,0,1-2.756,2.273,11.442,11.442,0,0,1-4.455.771A11.4,11.4,0,0,1,40.025,16.551Zm1.45-8.413a3.258,3.258,0,0,0-.967,2.586,3.218,3.218,0,0,0,.967,2.56,4.512,4.512,0,0,0,3.031.875,4.512,4.512,0,0,0,3.031-.875,3.281,3.281,0,0,0,.967-2.56,3.3,3.3,0,0,0-.967-2.586,4.512,4.512,0,0,0-3.031-.875A4.512,4.512,0,0,0,41.475,8.138ZM25.551,16.786a5.891,5.891,0,0,1-1.764-1.123v.98a.276.276,0,0,1-.274.274H20.169a.276.276,0,0,1-.274-.274V.718a.276.276,0,0,1,.274-.274h3.409a.276.276,0,0,1,.274.274V5.8a6.308,6.308,0,0,1,1.764-1.071A7.894,7.894,0,0,1,28.6,4.219a7.766,7.766,0,0,1,5.343,1.711,6.145,6.145,0,0,1,1.92,4.82A6.211,6.211,0,0,1,33.925,15.6a7.707,7.707,0,0,1-5.343,1.724A7.9,7.9,0,0,1,25.551,16.786Zm-.758-8.478a3.076,3.076,0,0,0-1.032,2.469,3.112,3.112,0,0,0,1.032,2.469,4.464,4.464,0,0,0,3,.914,4.468,4.468,0,0,0,2.991-.849,3.19,3.19,0,0,0,.954-2.547,3.132,3.132,0,0,0-.954-2.521A4.468,4.468,0,0,0,27.8,7.394,4.4,4.4,0,0,0,24.794,8.308ZM7.485,16.146a1.163,1.163,0,1,1,1.163,1.163A1.165,1.165,0,0,1,7.485,16.146Zm77.307.614a2.685,2.685,0,0,1-1.581-1.189,4.24,4.24,0,0,1-.47-2.168V7.3H80.6a.276.276,0,0,1-.274-.274V4.781a.276.276,0,0,1,.274-.274h2.142V1.528a.276.276,0,0,1,.274-.274h3.409a.276.276,0,0,1,.274.274V4.507h3.592a.268.268,0,0,1,.274.274V7.028a.276.276,0,0,1-.274.274H86.7v5.513a.791.791,0,0,0,.274.718,2.085,2.085,0,0,0,1.15.222c.326,0,.679-.013,1.071-.039s.732-.065,1.019-.1a.282.282,0,0,1,.222.065.308.308,0,0,1,.091.209v2.743a.28.28,0,0,1-.222.274c-.313.052-.718.1-1.215.144s-.967.052-1.411.052A9.833,9.833,0,0,1,84.792,16.76Zm22.691.144a.276.276,0,0,1-.274-.274V.705a.276.276,0,0,1,.274-.274h3.409a.279.279,0,0,1,.274.287V16.629a.276.276,0,0,1-.274.274Zm-53.6,0a.276.276,0,0,1-.274-.274V4.781a.276.276,0,0,1,.274-.274h3.344a.276.276,0,0,1,.274.274V5.826a6.881,6.881,0,0,1,1.137-.758,7.275,7.275,0,0,1,1.842-.653,11.551,11.551,0,0,1,2.338-.222,7.824,7.824,0,0,1,1.672.157.28.28,0,0,1,.222.274V7.877a.277.277,0,0,1-.131.235.258.258,0,0,1-.235.052l-.078-.026a9.02,9.02,0,0,0-1.894-.17,6.861,6.861,0,0,0-3.514.8,3.03,3.03,0,0,0-1.293,2.9v4.964a.276.276,0,0,1-.274.274Zm-41.8-.614a1.188,1.188,0,0,1-.705-.549,1.176,1.176,0,0,1-.118-.888,1.188,1.188,0,0,1,.549-.705,1.176,1.176,0,0,1,.888-.118,1.1,1.1,0,0,1,.705.549,1.176,1.176,0,0,1,.118.888,1.188,1.188,0,0,1-.549.705,1.2,1.2,0,0,1-.588.157A1.267,1.267,0,0,1,12.083,16.29Zm-7.759-.131a1.142,1.142,0,0,1-.549-.705,1.176,1.176,0,0,1,.118-.888,1.142,1.142,0,0,1,.705-.549,1.167,1.167,0,0,1,1.319,1.711,1.141,1.141,0,0,1-.705.549,1.109,1.109,0,0,1-.3.039A1.165,1.165,0,0,1,4.324,16.159Zm10.241-2.73a1.142,1.142,0,0,1-.549-.705,1.176,1.176,0,0,1,.118-.888,1.161,1.161,0,0,1,1.594-.431,1.2,1.2,0,0,1,.549.705,1.176,1.176,0,0,1-.118.888,1.142,1.142,0,0,1-.705.549,1.115,1.115,0,0,1-.3.039A1.166,1.166,0,0,1,14.565,13.429Zm-12.71.118A1.188,1.188,0,0,1,1.15,13a1.176,1.176,0,0,1-.118-.888,1.188,1.188,0,0,1,.549-.705,1.161,1.161,0,0,1,1.594.431,1.176,1.176,0,0,1,.118.888,1.188,1.188,0,0,1-.549.705,1.2,1.2,0,0,1-.588.157A1.268,1.268,0,0,1,1.855,13.546Zm5.63-1.136a1.165,1.165,0,0,1,1.163-1.163A1.149,1.149,0,0,1,9.81,12.41a1.163,1.163,0,0,1-2.325,0Zm3.827-.862a1.141,1.141,0,0,1-.549-.705,1.175,1.175,0,0,1,.118-.888,1.161,1.161,0,0,1,1.594-.431,1.141,1.141,0,0,1,.549.705,1.176,1.176,0,0,1-.118.888,1.141,1.141,0,0,1-.705.549,1.115,1.115,0,0,1-.3.039A1.166,1.166,0,0,1,11.313,11.548Zm-6.218.118a1.189,1.189,0,0,1-.705-.549A1.171,1.171,0,0,1,5.709,9.405a1.142,1.142,0,0,1,.705.549,1.172,1.172,0,0,1-.431,1.594A1.2,1.2,0,0,1,5.4,11.7,1.268,1.268,0,0,1,5.095,11.665Zm9.889-3a1.163,1.163,0,1,1,1.163,1.163A1.165,1.165,0,0,1,14.983,8.661ZM8.791,9.823H8.556a.608.608,0,0,1-.222-.039H8.321c-.013,0-.039-.013-.052-.013a.013.013,0,0,0-.013-.013.046.046,0,0,0-.026-.013c-.013-.013-.039-.013-.052-.026a.046.046,0,0,0-.026-.013H8.138a.013.013,0,0,0-.013-.013c-.013,0-.013-.013-.026-.013H8.086c-.013-.013-.039-.026-.052-.039a.013.013,0,0,0-.013-.013c-.013,0-.013,0-.026-.013a.178.178,0,0,1-.052-.039H7.929c-.013-.013-.026-.013-.039-.026L7.851,9.51l-.039-.039c-.013-.013-.013-.026-.026-.039V9.418c-.013-.013-.026-.039-.039-.052s-.013-.013-.013-.026a.013.013,0,0,1-.013-.013c-.013-.013-.026-.039-.039-.052V9.262a.013.013,0,0,1-.013-.013c0-.013-.013-.013-.013-.026s-.013-.039-.026-.052A665.519,665.519,0,0,0,7.6,9.118c0-.013-.013-.026-.013-.039s-.013-.026-.013-.039A.048.048,0,0,1,7.563,9V8.961c0-.026-.013-.039-.013-.052V8.857A.078.078,0,0,1,7.537,8.8V8.543a.079.079,0,0,0,.013-.052V8.439c0-.026.013-.039.013-.052V8.347c0-.013.013-.026.013-.039s.013-.026.013-.039S7.6,8.243,7.6,8.23A.046.046,0,0,0,7.616,8.2a.046.046,0,0,0,.013-.026c.013-.026.013-.039.026-.052s.013-.013.013-.026a.013.013,0,0,0,.013-.013V8.073c.013-.013.026-.039.039-.052a.013.013,0,0,0,.013-.013c0-.013,0-.013.013-.026a.183.183,0,0,1,.039-.052V7.916c.013-.013.013-.026.026-.039l.039-.039L7.89,7.8c.013-.013.026-.013.039-.026s.039-.026.052-.039.013-.013.026-.013a.013.013,0,0,1,.013-.013c.013-.013.039-.026.052-.039h.013A.013.013,0,0,1,8.1,7.655c.013,0,.013-.013.026-.013s.039-.013.052-.026A8.171,8.171,0,0,0,8.23,7.59c.013,0,.026-.013.039-.013s.026-.013.039-.013a.048.048,0,0,1,.039-.013h.039c.026,0,.039-.013.052-.013h.052a.079.079,0,0,1,.052-.013H8.8a.078.078,0,0,0,.052.013h.052c.026,0,.039.013.052.013H9c.013,0,.026.013.039.013s.026.013.039.013.026.013.039.013a8.072,8.072,0,0,0,.052.026c.026.013.039.013.052.026s.013.013.026.013a.013.013,0,0,0,.013.013h.013c.013.013.039.026.052.039a.013.013,0,0,0,.013.013c.013,0,.013.013.026.013s.039.026.052.039h.013c.013.013.026.013.039.026l.039.039.039.039c.013.013.013.026.026.039v.013c.013.013.026.039.039.052s.013.013.013.026a.013.013,0,0,1,.013.013c.013.013.026.039.039.052v.013a.013.013,0,0,1,.013.013c0,.013.013.013.013.026s.013.039.026.052a665.5,665.5,0,0,1,.026.052c0,.013.013.026.013.039s.013.026.013.039a.048.048,0,0,1,.013.039v.039c0,.026.013.039.013.052v.052a.079.079,0,0,1,.013.052v.065c0,.013,0,.026-.026.065v.144a.078.078,0,0,0-.013.052v.052c0,.026-.013.039-.013.052v.039c0,.013-.013.026-.013.039s-.013.026-.013.039V9.1c0,.013-.013.013-.013.026a1996.642,1996.642,0,0,1-.026.052c-.013.026-.013.039-.026.052s-.013.013-.013.026a.013.013,0,0,0-.013.013v.013c-.013.013-.026.039-.039.052a.013.013,0,0,0-.013.013c0,.013-.013.013-.013.026s-.026.039-.039.052-.013.026-.026.039l-.013.013-.026.026-.039.039c-.013.013-.026.013-.039.026H9.392c-.013.013-.039.026-.052.039s-.013.013-.026.013a.013.013,0,0,1-.013.013c-.013.013-.039.026-.052.039a.013.013,0,0,1-.013.013c-.013,0-.013.013-.026.013a.013.013,0,0,1-.013.013H9.183a.046.046,0,0,1-.026.013c-.013.013-.039.013-.052.026a.046.046,0,0,1-.026.013H9.066c-.013,0-.039.013-.052.013H9c-.052.013-.118.026-.183.039ZM0,8.661A1.163,1.163,0,1,1,1.163,9.823,1.165,1.165,0,0,1,0,8.661ZM10.895,7.368a1.175,1.175,0,0,1-.118-.888,1.188,1.188,0,0,1,.549-.705,1.176,1.176,0,0,1,.888-.118,1.188,1.188,0,0,1,.705.549,1.176,1.176,0,0,1,.118.888,1.188,1.188,0,0,1-.549.705,1.239,1.239,0,0,1-.588.157A1.142,1.142,0,0,1,10.895,7.368ZM4.833,7.8a1.141,1.141,0,0,1-.549-.705A1.175,1.175,0,0,1,4.4,6.2a1.141,1.141,0,0,1,.705-.549A1.176,1.176,0,0,1,6,5.774a1.188,1.188,0,0,1,.431,1.594,1.142,1.142,0,0,1-.705.549,1.11,1.11,0,0,1-.3.039A1.166,1.166,0,0,1,4.833,7.8Zm9.3-2.3a1.176,1.176,0,0,1-.118-.888,1.189,1.189,0,0,1,.549-.705,1.176,1.176,0,0,1,.888-.118,1.189,1.189,0,0,1,.705.549,1.172,1.172,0,0,1-.431,1.594,1.239,1.239,0,0,1-.588.157A1.142,1.142,0,0,1,14.134,5.5ZM1.581,5.931A1.161,1.161,0,0,1,1.15,4.337a1.142,1.142,0,0,1,.705-.549,1.176,1.176,0,0,1,.888.118,1.209,1.209,0,0,1,.562.705A1.176,1.176,0,0,1,1.581,5.931Zm5.9-1.019A1.163,1.163,0,1,1,8.648,6.074,1.165,1.165,0,0,1,7.485,4.912Zm4.324-1.724a1.239,1.239,0,0,1-.549-.705,1.176,1.176,0,0,1,.118-.888,1.141,1.141,0,0,1,.705-.549,1.176,1.176,0,0,1,.888.118,1.141,1.141,0,0,1,.549.705,1.176,1.176,0,0,1-.118.888A1.141,1.141,0,0,1,12.7,3.3a1.115,1.115,0,0,1-.3.039A1.165,1.165,0,0,1,11.809,3.187ZM4.6,3.3a1.142,1.142,0,0,1-.705-.549,1.176,1.176,0,0,1-.118-.888,1.188,1.188,0,0,1,.549-.705,1.176,1.176,0,0,1,.888-.118,1.188,1.188,0,0,1,.705.549,1.175,1.175,0,0,1,.118.888,1.188,1.188,0,0,1-.549.705,1.2,1.2,0,0,1-.588.157A1.268,1.268,0,0,1,4.6,3.3ZM7.485,1.163A1.163,1.163,0,1,1,8.648,2.325,1.165,1.165,0,0,1,7.485,1.163Z" fill="#fff"/>
</svg>
